<svg width="252" height="80" viewBox="0 0 252 80" fill="none" xmlns="http://www.w3.org/2000/svg">
<path d="M89.5538 0H0V56.2314H89.5538V0Z" fill="#472F99"/>
<path d="M252 76H108V80H252V76Z" fill="white"/>
<path d="M37.9045 19.2992H20.377V65.9504H37.9045C50.7669 65.9504 59.8972 55.4872 59.8972 42.6248C59.8972 29.7624 50.7669 19.2992 37.9045 19.2992ZM37.9045 62.6182H23.9091V22.6314H37.9045C48.9009 22.6314 56.4317 31.5618 56.4317 42.6248C56.4317 53.6878 48.9009 62.6182 37.9045 62.6182ZM83.1271 31.895C72.9304 31.895 65.8661 39.4925 65.8661 49.2893C65.8661 59.3526 73.1304 66.6835 83.3936 66.6835C89.9915 66.6835 95.1897 63.6845 97.9222 59.1527L94.9898 57.4199C93.0571 60.9521 88.9251 63.4846 83.4603 63.4846C75.8628 63.4846 70.1314 58.5529 69.3316 51.0221H99.5216C99.5216 50.4889 99.5883 49.9557 99.5883 49.4226C99.5883 40.2923 93.257 31.895 83.1271 31.895ZM83.1271 35.094C89.6582 35.094 95.3897 39.6258 96.1228 47.7565H69.3316C69.9981 40.3589 75.5296 35.094 83.1271 35.094Z" fill="white"/>
<path d="M134.567 29.5625V19.2992H106.243V65.9504H116.906V48.8228H134.234V38.5595H116.906V29.5625H134.567ZM149.464 53.288H173.123C173.39 52.0217 173.523 50.6888 173.523 49.2893C173.523 39.2259 166.325 31.6951 156.595 31.6951C146.065 31.6951 138.868 39.3592 138.868 49.2893C138.868 59.2193 145.932 66.8835 157.328 66.8835C163.66 66.8835 168.591 64.5509 171.857 60.0191L163.86 55.4206C162.527 56.8868 160.194 57.9531 157.462 57.9531C153.796 57.9531 150.731 56.7535 149.464 53.288ZM149.264 45.8238C150.197 42.4249 152.73 40.5588 156.529 40.5588C159.528 40.5588 162.527 41.9584 163.593 45.8238H149.264ZM187.798 53.288H211.457C211.724 52.0217 211.857 50.6888 211.857 49.2893C211.857 39.2259 204.659 31.6951 194.929 31.6951C184.399 31.6951 177.202 39.3592 177.202 49.2893C177.202 59.2193 184.266 66.8835 195.662 66.8835C201.993 66.8835 206.925 64.5509 210.191 60.0191L202.193 55.4206C200.861 56.8868 198.528 57.9531 195.796 57.9531C192.13 57.9531 189.064 56.7535 187.798 53.288ZM187.598 45.8238C188.531 42.4249 191.064 40.5588 194.863 40.5588C197.862 40.5588 200.861 41.9584 201.927 45.8238H187.598ZM241.394 19.2992V35.7604C239.194 33.2279 235.929 31.6951 231.464 31.6951C222.733 31.6951 215.536 39.3592 215.536 49.2893C215.536 59.2193 222.733 66.8835 231.464 66.8835C235.929 66.8835 239.194 65.3506 241.394 62.8182V65.9504H251.39V19.2992H241.394ZM233.463 57.4199C228.864 57.4199 225.532 54.2876 225.532 49.2893C225.532 44.2909 228.864 41.1586 233.463 41.1586C238.061 41.1586 241.394 44.2909 241.394 49.2893C241.394 54.2876 238.061 57.4199 233.463 57.4199Z" fill="#4C30C0"/>
</svg>
