<svg width="21" height="20" viewBox="0 0 21 20" fill="none" xmlns="http://www.w3.org/2000/svg">
<path d="M2.09997 20H12.2008C12.8067 20.0003 13.4055 19.869 13.956 19.6152C14.5065 19.3613 14.9956 18.9909 15.3896 18.5295L20.7466 12.2642C20.8588 12.1332 20.9371 11.9766 20.9747 11.8082C21.0123 11.6397 21.0079 11.4646 20.9621 11.2982C20.9162 11.1318 20.8303 10.9792 20.7118 10.854C20.5933 10.7288 20.4458 10.6347 20.2825 10.58L18.2162 9.88948C17.7167 9.72673 17.185 9.68991 16.668 9.78226C16.151 9.87461 15.6647 10.0933 15.2521 10.419L11.9079 13.1L11.26 11.8C10.913 11.0992 10.3771 10.5099 9.71311 10.0988C9.04914 9.68762 8.28359 9.47109 7.50318 9.47369H2.09997C0.941835 9.47369 0 10.4179 0 11.579V17.8947C0 19.0558 0.941835 20 2.09997 20ZM2.09997 11.579H7.50318C8.30432 11.579 9.02355 12.0242 9.3816 12.7421L9.85094 13.6842H5.24992V15.7895H11.5645C11.7261 15.7873 11.8849 15.7477 12.0286 15.6737L12.0318 15.6726L12.036 15.6705H12.0391L12.0412 15.6695H12.0454L12.0465 15.6684C12.0559 15.6716 12.0496 15.6674 12.0496 15.6674C12.0601 15.6674 12.0517 15.6663 12.0517 15.6663H12.0528L12.0549 15.6653L12.058 15.6642L12.0601 15.6632L12.0622 15.6621L12.0654 15.6611L12.0675 15.66C12.0706 15.66 12.0685 15.6589 12.0696 15.6589L12.0727 15.6568L12.0748 15.6558L12.0769 15.6547L12.0801 15.6537L12.0822 15.6526H12.0832L12.0853 15.6516H12.0864L12.0885 15.6505L12.0906 15.6495C12.1 15.6484 12.0937 15.6484 12.0937 15.6484L12.0958 15.6474C12.1363 15.6229 12.1749 15.5954 12.2113 15.5653L16.5645 12.0737C16.8396 11.8547 17.2187 11.7863 17.5515 11.8979L18.1364 12.0937L13.7968 17.1705C13.5972 17.3978 13.3516 17.5798 13.0765 17.7047C12.8013 17.8296 12.5028 17.8943 12.2008 17.8947H2.09997V11.579V11.579ZM14.6998 9.90073e-06H14.6819C14.5108 0.00211516 13.6256 0.0410624 12.5998 0.742115C11.6013 0.0600098 10.7371 0.00527298 10.5334 0.00106246L10.5019 9.90073e-06H10.4977C9.65669 9.90073e-06 8.86501 0.329483 8.27282 0.92422C7.67853 1.52106 7.34988 2.31369 7.34988 3.1579C7.34988 4.00211 7.67853 4.79474 8.25392 5.37264L11.8386 9.14737C11.9372 9.25001 12.0555 9.33164 12.1863 9.38736C12.3171 9.44308 12.4579 9.47175 12.6 9.47166C12.7422 9.47156 12.8829 9.44269 13.0136 9.38679C13.1444 9.33089 13.2626 9.2491 13.361 9.14632L16.9268 5.39053C17.5221 4.79474 17.8497 4.00211 17.8497 3.1579C17.8497 2.31369 17.5211 1.52106 16.9278 0.925273C16.6363 0.63111 16.2894 0.397861 15.9073 0.239036C15.5252 0.0802118 15.1155 -0.00103227 14.7019 9.90073e-06H14.6998ZM15.7497 3.1579C15.7497 3.43896 15.6405 3.70317 15.4232 3.92106L12.5998 6.89474L9.75749 3.90211C9.55905 3.70317 9.44985 3.43896 9.44985 3.1579C9.44985 2.87685 9.55905 2.61264 9.75854 2.41264C9.94841 2.21902 10.207 2.10853 10.4778 2.10527C10.504 2.10632 11.0049 2.13896 11.5981 2.6158C11.6832 2.68422 11.7693 2.76211 11.8575 2.84948L12.5998 3.59369L13.3421 2.84948C13.4303 2.76211 13.5164 2.68422 13.6015 2.6158C14.1569 2.16843 14.6263 2.11264 14.7061 2.10632C14.8429 2.1063 14.9784 2.13345 15.1047 2.1862C15.2311 2.23896 15.3457 2.31628 15.4421 2.41369C15.6405 2.61264 15.7497 2.87685 15.7497 3.1579Z" fill="white"/>
</svg>
