<svg width="829" height="885" viewBox="0 0 829 885" fill="none" xmlns="http://www.w3.org/2000/svg">
<path d="M543.236 690.237C538.596 694.804 533.078 698.479 527.933 699.677L270.121 766.508C264.977 767.707 260.554 767.14 257.568 764.106C254.055 760.537 253.395 754.511 255.222 747.443L390.497 258.038C394.145 244.61 406.467 231.427 418.178 228.333L675.99 161.503C681.135 160.304 685.557 160.87 688.543 163.904C692.056 167.473 692.717 173.499 690.89 180.567L555.436 670.148C553.431 677.392 548.947 684.616 543.236 690.237ZM527.409 698.788C538.588 695.866 550.732 682.86 554.377 669.786L689.652 180.38C691.476 173.666 690.813 167.995 687.651 164.782C685.016 162.105 681.126 161.366 676.158 162.743L418.346 229.574C407.167 232.495 395.023 245.502 391.378 258.576L256.281 747.806C254.457 754.52 255.12 760.191 258.282 763.404C260.917 766.081 264.807 766.82 269.775 765.443L527.409 698.788Z" fill="#42E8E0"/>
<path d="M644.974 120.707L625.457 147.998L397.098 207.272C385.565 210.19 373.421 223.197 369.773 236.625L249.451 671.612L214.716 719.853L229.295 734.665C231.929 737.342 236.17 738.438 241.318 736.886L499.13 670.055C510.663 667.136 522.807 654.13 526.455 640.702L661.729 151.296C663.556 144.228 662.893 138.557 659.731 135.344L645.153 120.532L644.974 120.707Z" fill="url(#paint0_linear)"/>
<path d="M484.197 655.24L226.384 722.07C214.852 724.989 208.542 716.793 212.188 703.719L347.817 214.317C351.462 201.243 363.785 188.06 375.142 184.963L632.954 118.133C644.486 115.214 650.796 123.409 647.15 136.484L511.697 626.065C508.052 639.139 495.729 652.321 484.197 655.24Z" fill="#24126A"/>
<path d="M646.972 136.659L511.697 626.065C508.052 639.139 495.729 652.321 484.372 655.418L226.56 722.249C222.124 723.453 218.234 722.714 215.594 720.745C218.044 724.306 222.637 725.759 228.492 724.212L486.304 657.381C497.837 654.463 509.981 641.456 513.629 628.028L648.904 138.622C651.091 130.849 649.546 124.639 645.852 121.599C648.127 124.982 648.793 130.299 646.972 136.659Z" fill="white"/>
<path opacity="0.51" d="M481.041 651.319L232.455 715.744C221.277 718.665 215.143 710.648 218.785 697.928L351.508 217.71C355.151 204.99 366.938 192.335 378.116 189.414L626.702 124.989C637.88 122.067 644.014 130.084 640.372 142.804L507.649 623.022C504.006 635.742 492.219 648.397 481.041 651.319Z" fill="#472F99"/>
<path opacity="0.8" d="M492.119 638.658C487.479 643.225 482.318 646.548 476.995 647.922L228.409 712.347C223.441 713.725 219.021 712.804 216.211 709.949C212.873 706.558 211.859 700.529 213.861 693.64L346.584 213.421C350.051 200.523 362.195 187.516 373.549 184.774L622.135 120.348C627.104 118.971 631.523 119.892 634.333 122.747C637.671 126.138 638.685 132.167 636.683 139.056L503.96 619.274C502.312 626.167 497.652 633.213 492.119 638.658ZM476.83 646.327C487.655 643.403 499.439 631.102 502.903 618.558L635.626 138.34C637.447 131.98 636.606 126.484 633.62 123.45C631.161 120.951 627.271 120.212 622.835 121.416L374.249 185.842C363.425 188.766 351.64 201.067 348.176 213.611L215.454 693.829C213.632 700.189 214.474 705.685 217.46 708.719C219.919 711.218 223.809 711.957 228.245 710.753L476.83 646.327Z" fill="url(#paint1_linear)"/>
<g opacity="0.1">
<path opacity="0.5" d="M477.001 647.214L228.415 711.639C217.237 714.56 211.103 706.544 214.745 693.824L347.468 213.606C351.111 200.886 362.898 188.23 374.076 185.309L622.662 120.884C633.84 117.963 639.974 125.979 636.331 138.699L503.609 618.917C499.966 631.637 488.179 644.293 477.001 647.214Z" fill="url(#paint2_radial)"/>
<g opacity="0.1">
<path opacity="0.1" d="M618.174 440.457C598.501 420.469 560.868 410.077 533.72 417.121C520.236 420.556 511.856 427.749 509.483 436.761L506.931 445.948L508.891 444.37C509.546 451.104 513.204 458.747 520.23 465.885C539.903 485.873 577.536 496.265 604.683 489.221C613.91 486.816 620.672 482.62 624.963 477.342L626.366 479.124L628.921 469.582L628.923 469.228C631.294 460.571 627.835 450.273 618.174 440.457Z" fill="#9FFFF8"/>
<path opacity="0.1" d="M626.393 479.008C631.663 459.947 609.246 437.116 576.323 428.014C543.4 418.912 512.438 426.985 507.168 446.045C501.899 465.106 524.316 487.937 557.239 497.039C590.162 506.141 621.123 498.068 626.393 479.008Z" fill="#42E8E0"/>
</g>
</g>
<path opacity="0.4" d="M603.684 169.427C602.591 173.314 598.665 177.178 594.939 178.034C591.036 179.065 588.752 176.745 590.021 173.037C591.114 169.15 595.041 165.286 598.766 164.43C602.494 163.22 604.777 165.54 603.684 169.427Z" fill="#24126A"/>
<path opacity="0.4" d="M546.247 177.824L573.04 170.777C576.411 169.919 578.162 172.411 577.072 175.944C575.978 179.831 572.585 183.523 569.213 184.381L542.42 191.428C539.049 192.286 537.298 189.794 538.389 186.261C539.482 182.374 542.875 178.683 546.247 177.824Z" fill="#24126A"/>
<path opacity="0.4" d="M389.957 214.652L416.75 207.605C420.121 206.746 421.872 209.239 420.781 212.772C419.688 216.659 416.295 220.35 412.923 221.209L386.13 228.255C382.759 229.114 381.008 226.621 382.098 223.088C383.367 219.38 386.761 215.689 389.957 214.652Z" fill="#24126A"/>
<path d="M597.536 163.181C596.443 167.067 592.516 170.932 588.791 171.788C584.887 172.819 582.604 170.499 583.873 166.791C584.966 162.904 588.892 159.039 592.618 158.184C596.343 157.328 598.629 159.294 597.536 163.181Z" fill="#42E8E0"/>
<path d="M540.275 171.756L567.068 164.709C570.439 163.851 572.19 166.344 571.1 169.876C570.006 173.763 566.613 177.455 563.241 178.313L536.448 185.36C533.077 186.219 531.326 183.726 532.416 180.193C533.51 176.306 536.903 172.615 540.275 171.756Z" fill="#42E8E0"/>
<path d="M383.984 208.584L410.778 201.537C414.149 200.678 415.9 203.171 414.809 206.704C413.716 210.591 410.322 214.282 406.951 215.141L380.158 222.188C376.787 223.046 375.036 220.553 376.126 217.021C377.219 213.134 380.613 209.442 383.984 208.584Z" fill="#42E8E0"/>
<path d="M489.071 309.286C469.398 289.297 431.765 278.905 404.618 285.949C391.133 289.384 382.754 296.577 380.38 305.589L377.828 314.776L379.789 313.198C380.443 319.932 384.101 327.575 391.127 334.713C410.8 354.701 448.433 365.093 475.58 358.049C484.807 355.644 491.569 351.448 495.861 346.17L497.263 347.952L499.818 338.41L499.821 338.056C502.016 329.22 498.556 318.923 489.071 309.286Z" fill="#9FFFF8"/>
<path d="M497.093 347.693C502.363 328.632 479.946 305.802 447.023 296.699C414.1 287.597 383.138 295.67 377.869 314.73C372.599 333.791 395.016 356.622 427.939 365.724C460.862 374.826 491.824 366.754 497.093 347.693Z" fill="#42E8E0"/>
<path d="M331.416 295.107C327.032 267.449 302.307 236.974 276.179 227.204C263.116 222.143 252.306 223.296 245 229.081L237.691 235.221L239.994 235.062C236.405 241.054 235.278 249.19 236.97 259.119C241.354 286.777 266.079 317.252 292.207 327.021C301.21 330.457 309.174 331.052 315.386 329.153L315.545 331.457L323.032 325.142L323.389 324.79C330.519 318.827 333.434 308.58 331.416 295.107Z" fill="#9FFFF8"/>
<path d="M304.42 260.602C282.897 234.077 253 222.676 237.644 235.137C222.288 247.598 227.287 279.201 248.81 305.726C270.333 332.251 300.229 343.652 315.586 331.191C330.942 318.73 325.943 287.127 304.42 260.602Z" fill="#42E8E0"/>
<g opacity="0.1">
<path opacity="0.1" d="M470.872 415.737C451.199 395.749 413.566 385.357 386.419 392.401C372.934 395.835 364.555 403.028 362.181 412.04L359.629 421.227L361.59 419.649C362.244 426.383 365.902 434.026 372.928 441.164C392.601 461.152 430.234 471.544 457.381 464.5C466.608 462.095 473.37 457.899 477.662 452.621L479.064 454.403L481.619 444.861L481.622 444.507C483.817 435.671 480.533 425.552 470.872 415.737Z" fill="#9FFFF8"/>
<path opacity="0.1" d="M478.911 454.173C484.181 435.112 461.763 412.282 428.84 403.179C395.917 394.077 364.956 402.15 359.686 421.211C354.416 440.271 376.834 463.102 409.757 472.204C442.68 481.307 473.641 473.234 478.911 454.173Z" fill="#42E8E0"/>
</g>
<path opacity="0.4" d="M467.683 482.82C446.089 504.074 419.931 520.333 394.202 527.035C369.185 533.387 348.496 529.859 335.674 516.831C322.851 503.803 319.476 482.882 326.401 458.147C340.62 406.91 393.981 354.391 445.259 341.164C470.276 334.811 490.965 338.34 503.788 351.368C516.61 364.396 519.985 385.317 513.06 410.052L512.53 409.87L513.06 410.052C505.951 435.67 489.277 461.567 467.683 482.82ZM372.305 385.914C350.889 406.992 334.04 432.71 327.109 458.153C320.363 482.712 323.387 503.276 336.033 516.125C348.68 528.975 369.193 532.325 393.857 525.97C445.135 512.743 498.139 460.575 512.179 409.513C518.926 384.954 515.902 364.39 503.255 351.541C490.608 338.691 470.095 335.341 445.432 341.697C419.879 348.576 393.721 364.836 372.305 385.914Z" fill="#42E8E0"/>
<path opacity="0.2" d="M480.506 495.848C453.201 522.723 419.923 543.529 387.274 552.123C355.691 560.371 329.166 555.911 312.83 539.314C296.495 522.717 292.278 496.3 301.206 464.675C319.075 399.656 386.713 333.085 452.008 316.251C483.592 308.003 510.117 312.463 526.453 329.06C542.788 345.657 547.005 372.074 538.077 403.699C529.144 436.031 507.811 468.974 480.506 495.848ZM359.483 372.886C332.356 399.585 310.847 432.348 302.09 464.86C293.519 496.133 297.56 522.371 313.544 538.611C329.528 554.851 355.699 559.309 387.104 551.237C452.045 534.4 519.505 468.004 537.372 403.339C545.943 372.066 541.901 345.827 525.917 329.587C509.933 313.347 483.762 308.889 452.357 316.962C419.886 325.38 386.788 346.011 359.483 372.886Z" fill="#42E8E0"/>
<path d="M457.495 472.469C440.541 489.156 419.898 502.095 399.493 507.422C379.799 512.401 363.354 509.614 353.166 499.263C342.978 488.912 340.453 472.424 345.744 452.812C356.867 412.351 398.806 371.074 439.438 360.595C459.132 355.617 475.578 358.404 485.765 368.755C495.953 379.106 498.478 395.593 493.187 415.206L492.657 415.024L493.187 415.206C487.715 435.348 474.449 455.782 457.495 472.469ZM382.493 396.265C365.717 412.776 352.451 433.21 346.804 453.174C341.515 472.433 343.865 488.742 353.877 498.914C363.889 509.087 379.98 511.871 399.499 506.714C439.777 496.233 481.537 455.131 492.657 415.024C497.945 395.766 495.596 379.457 485.584 369.284C475.572 359.112 459.481 356.328 439.962 361.485C419.911 366.815 399.447 379.578 382.493 396.265Z" fill="#42E8E0"/>
<path d="M470.872 415.737C451.199 395.749 413.566 385.357 386.419 392.401C372.934 395.835 364.555 403.028 362.181 412.04L359.629 421.227L361.59 419.649C362.244 426.383 365.902 434.026 372.928 441.164C392.601 461.152 430.234 471.544 457.381 464.5C466.608 462.095 473.37 457.899 477.662 452.621L479.064 454.403L481.619 444.861L481.622 444.507C483.817 435.671 480.533 425.552 470.872 415.737Z" fill="#9FFFF8"/>
<path d="M478.911 454.173C484.181 435.112 461.763 412.282 428.84 403.179C395.917 394.077 364.956 402.15 359.686 421.211C354.416 440.271 376.834 463.102 409.757 472.204C442.68 481.307 473.641 473.234 478.911 454.173Z" fill="#42E8E0"/>
<path opacity="0.4" d="M436.499 618.915L282.841 658.774C278.405 659.978 274.189 655.695 275.464 651.279L281.848 627.779C284.034 620.006 290.281 613.858 298.088 611.795L451.747 571.936C456.183 570.732 460.398 575.015 459.124 579.432L452.74 602.931C450.553 610.705 444.485 616.677 436.499 618.915Z" fill="#24126A"/>
<path d="M330.689 609.221L306.026 615.577L307.303 610.806L331.967 604.45L330.689 609.221Z" fill="#42E8E0"/>
<path d="M400.591 592.07L392.962 593.957L394.417 589.011L402.046 587.123L400.591 592.07Z" fill="#42E8E0"/>
<path d="M344.882 605.792L337.429 607.858L338.885 602.912L346.338 600.846L344.882 605.792Z" fill="#42E8E0"/>
<path d="M433.643 599.592C430.787 602.403 427.229 604.499 423.326 605.531L269.489 645.565C267.183 646.078 264.885 645.528 263.129 643.744C261.372 641.959 260.859 639.653 261.409 637.355L267.793 613.856C270.158 605.907 276.405 599.759 284.39 597.521L438.049 557.662C440.355 557.149 442.652 557.699 444.409 559.483C446.165 561.268 446.678 563.574 446.129 565.871L439.744 589.371C438.651 593.257 436.498 596.782 433.643 599.592ZM274.597 604.348C271.92 606.983 269.768 610.507 268.853 614.219L262.469 637.718C261.922 639.661 262.438 641.613 263.843 643.041C265.248 644.469 267.191 645.015 269.143 644.5L422.802 604.641C430.431 602.754 436.498 596.782 438.685 589.008L445.069 565.509C445.616 563.565 445.1 561.613 443.695 560.186C442.29 558.758 440.346 558.211 438.394 558.727L284.736 598.586C280.832 599.617 277.453 601.538 274.597 604.348Z" fill="#42E8E0"/>
<path d="M291.777 271.038L284.845 292.524L262.56 296.205L255.613 258.588L291.777 271.038ZM287.309 295.384L265.024 299.065L297.94 307.726L294.25 273.89L287.309 295.384V295.384Z" fill="#352482"/>
<path d="M447.214 315.429L448.615 337.962L429.217 349.534L409.001 317.058L447.214 315.429ZM451.953 339.723L432.555 351.295L466.36 347.326L450.558 317.18L451.953 339.723V339.723Z" fill="#352482"/>
<path d="M427.092 417.409L430.755 439.687L412.621 453.153L389.238 422.877L427.092 417.409ZM434.254 441.103L416.12 454.569L449.353 447.216L430.596 418.814L434.254 441.103V441.103Z" fill="#352482"/>
<defs>
<linearGradient id="paint0_linear" x1="188.967" y1="693.642" x2="707.031" y2="183.749" gradientUnits="userSpaceOnUse">
<stop stop-color="#BCBEFF"/>
<stop offset="0.151" stop-color="#A3A7F5"/>
<stop offset="0.3866" stop-color="#8289E8"/>
<stop offset="0.6124" stop-color="#6A73DF"/>
<stop offset="0.8221" stop-color="#5C66D9"/>
<stop offset="1" stop-color="#5761D7"/>
</linearGradient>
<linearGradient id="paint1_linear" x1="592.294" y1="440.968" x2="258.798" y2="391.393" gradientUnits="userSpaceOnUse">
<stop stop-color="#42E8E0"/>
<stop offset="0.1055" stop-color="#37B6BF"/>
<stop offset="0.2197" stop-color="#2C87A1"/>
<stop offset="0.338" stop-color="#235F87"/>
<stop offset="0.4587" stop-color="#1C3F72"/>
<stop offset="0.5824" stop-color="#162561"/>
<stop offset="0.7105" stop-color="#121355"/>
<stop offset="0.8458" stop-color="#10084E"/>
<stop offset="1" stop-color="#0F054C"/>
</linearGradient>
<radialGradient id="paint2_radial" cx="0" cy="0" r="1" gradientUnits="userSpaceOnUse" gradientTransform="translate(417.66 433.588) rotate(-44.5446) scale(568.947)">
<stop stop-color="#42E8E0"/>
<stop offset="0.1055" stop-color="#37B6BF"/>
<stop offset="0.2197" stop-color="#2C87A1"/>
<stop offset="0.338" stop-color="#235F87"/>
<stop offset="0.4587" stop-color="#1C3F72"/>
<stop offset="0.5824" stop-color="#162561"/>
<stop offset="0.7105" stop-color="#121355"/>
<stop offset="0.8458" stop-color="#10084E"/>
<stop offset="1" stop-color="#0F054C"/>
</radialGradient>
</defs>
</svg>
